# xmcd
#
# Track frame offsets:
#	150
#	16640
#	35992
#	54817
#	71830
#	84975
#	102325
#	120675
#	139255
#	158172
#
# Disc length: 2389 seconds
#
# Revision: 13
# Processed by: cddbd v1.5.2PL0 Copyright (c) Steve Scherf et al.
# Submitted via: Jack! The Knife 20 Magnifico
#
DISCID=7f09530a
DTITLE=Pooh - ...Stop
DYEAR=1980
DGENRE=Pop
TTITLE0=Caro Me Stesso Mio
TTITLE1=Stagione Di Vento
TTITLE2=Numero Uno
TTITLE3=Vienna
TTITLE4=Ali Per Guardare, Occhi Per Volare
TTITLE5=Canterò Per Te
TTITLE6=Aria Di Mezzanotte
TTITLE7=Quasi Città
TTITLE8=Gatto Di Strada
TTITLE9=Inca
EXTD=Pooh
EXTT0=Facchinetti, Negrini
EXTT1=Facchinetti, Negrini
EXTT2=Facchinetti, D'Orazio
EXTT3=Battaglia, Negrini
EXTT4=Facchinetti, Negrini
EXTT5=Battaglia, Negrini
EXTT6=Facchinetti, Canzian, D'Orazio
EXTT7=Facchinetti, Negrini
EXTT8=Canzian, Negrini
EXTT9=Facchinetti, Negrini
PLAYORDER=
